{
  "source": "C:\\Users\\Peter\\Desktop\\stuff\\MIUN\\quantitative_research\\video_compression\\videos\\BVI-HD\\DiverFishAndRock_1920x1080_30fps.mp4",
  "output": "C:\\Users\\Peter\\Desktop\\stuff\\MIUN\\quantitative_research\\video_compression\\compressed_videos\\BVI-HD\\vp9\\12\\DiverFishAndRock_1920x1080_30fps_vp9.webm",
  "codec": "vp9",
  "ok": "Input #0, mov,mp4,m4a,3gp,3g2,mj2, from 'C:\\Users\\Peter\\Desktop\\stuff\\MIUN\\quantitative_research\\video_compression\\videos\\BVI-HD\\DiverFishAndRock_1920x1080_30fps.mp4':\n  Metadata:\n    major_brand     : isom\n    minor_version   : 512\n    compatible_brands: isomiso2avc1mp41\n    encoder         : Lavf54.28.101\n  Duration: 00:00:05.00, start: 0.000000, bitrate: 228854 kb/s\n  Stream #0:0[0x1](und): Video: h264 (High 4:4:4 Predictive) (avc1 / 0x31637661), yuv420p(progressive), 1920x1080, 228851 kb/s, 30 fps, 30 tbr, 30 tbn (default)\n    Metadata:\n      handler_name    : VideoHandler\n      vendor_id       : [0][0][0][0]\n[out#0/webm @ 0000022fb47008c0] Codec AVOption b:a (set bitrate (in bits/s)) has not been used for any stream. The most likely reason is either wrong type (e.g. a video option with no video streams) or that it is a private option of some decoder which was not actually used for any stream.\nStream mapping:\n  Stream #0:0 -> #0:0 (h264 (native) -> vp9 (libvpx-vp9))\nPress [q] to stop, [?] for help\n[libvpx-vp9 @ 0000022fb3fdf180] v1.15.2-100-g40561f514\nOutput #0, webm, to 'C:\\Users\\Peter\\Desktop\\stuff\\MIUN\\quantitative_research\\video_compression\\compressed_videos\\BVI-HD\\vp9\\12\\DiverFishAndRock_1920x1080_30fps_vp9.webm':\n  Metadata:\n    major_brand     : isom\n    minor_version   : 512\n    compatible_brands: isomiso2avc1mp41\n    encoder         : Lavf62.3.100\n  Stream #0:0(und): Video: vp9, yuv420p(tv, progressive), 1920x1080, q=2-31, 12000 kb/s, 30 fps, 1k tbn (default)\n    Metadata:\n      encoder         : Lavc62.11.100 libvpx-vp9\n      handler_name    : VideoHandler\n      vendor_id       : [0][0][0][0]\n    Side data:\n      cpb: bitrate max/min/avg: 0/0/0 buffer size: 12000000 vbv_delay: N/A\nframe=    0 fps=0.0 q=0.0 size=       0KiB time=N/A bitrate=N/A speed=N/A elapsed=0:00:00.51    \nframe=    0 fps=0.0 q=0.0 size=       0KiB time=N/A bitrate=N/A speed=N/A elapsed=0:00:01.09    \nframe=    3 fps=1.8 q=38.0 size=       1KiB time=00:00:00.10 bitrate=  50.7kbits/s speed=0.0611x elapsed=0:00:01.63    \nframe=    6 fps=2.8 q=28.0 size=       1KiB time=00:00:00.20 bitrate=  25.4kbits/s speed=0.0924x elapsed=0:00:02.16    \nframe=    9 fps=3.3 q=25.0 size=       1KiB time=00:00:00.30 bitrate=  16.9kbits/s speed=0.111x elapsed=0:00:02.71    \nframe=   11 fps=3.4 q=12.0 size=       1KiB time=00:00:00.36 bitrate=  13.8kbits/s speed=0.113x elapsed=0:00:03.25    \nframe=   13 fps=3.4 q=24.0 size=       1KiB time=00:00:00.43 bitrate=  11.7kbits/s speed=0.114x elapsed=0:00:03.81    \nframe=   16 fps=3.7 q=24.0 size=       1KiB time=00:00:00.53 bitrate=   9.5kbits/s speed=0.123x elapsed=0:00:04.35    \nframe=   18 fps=3.7 q=23.0 size=       1KiB time=00:00:00.60 bitrate=   8.5kbits/s speed=0.122x elapsed=0:00:04.90    \nframe=   20 fps=3.7 q=24.0 size=       1KiB time=00:00:00.66 bitrate=   7.6kbits/s speed=0.123x elapsed=0:00:05.41    \nframe=   22 fps=3.7 q=24.0 size=       1KiB time=00:00:00.73 bitrate=   6.9kbits/s speed=0.123x elapsed=0:00:05.98    \nframe=   24 fps=3.7 q=23.0 size=       1KiB time=00:00:00.80 bitrate=   6.3kbits/s speed=0.122x elapsed=0:00:06.53    \nframe=   27 fps=3.8 q=24.0 size=       1KiB time=00:00:00.90 bitrate=   5.6kbits/s speed=0.128x elapsed=0:00:07.05    \nframe=   29 fps=3.8 q=24.0 size=       1KiB time=00:00:00.96 bitrate=   5.2kbits/s speed=0.127x elapsed=0:00:07.62    \nframe=   30 fps=3.7 q=25.0 size=       1KiB time=00:00:01.00 bitrate=   5.1kbits/s speed=0.123x elapsed=0:00:08.15    \nframe=   32 fps=3.7 q=25.0 size=       1KiB time=00:00:01.06 bitrate=   4.8kbits/s speed=0.123x elapsed=0:00:08.65    \nframe=   35 fps=3.8 q=24.0 size=       1KiB time=00:00:01.16 bitrate=   4.3kbits/s speed=0.127x elapsed=0:00:09.18    \nframe=   37 fps=3.8 q=24.0 size=       1KiB time=00:00:01.23 bitrate=   4.1kbits/s speed=0.126x elapsed=0:00:09.76    \nframe=   40 fps=3.9 q=24.0 size=       1KiB time=00:00:01.33 bitrate=   3.8kbits/s speed=0.129x elapsed=0:00:10.32    \nframe=   41 fps=3.8 q=10.0 size=       1KiB time=00:00:01.36 bitrate=   3.7kbits/s speed=0.126x elapsed=0:00:10.87    \nframe=   43 fps=3.8 q=20.0 size=       1KiB time=00:00:01.43 bitrate=   3.5kbits/s speed=0.126x elapsed=0:00:11.38    \nframe=   45 fps=3.8 q=20.0 size=       1KiB time=00:00:01.50 bitrate=   3.4kbits/s speed=0.126x elapsed=0:00:11.90    \nframe=   47 fps=3.8 q=21.0 size=       1KiB time=00:00:01.56 bitrate=   3.2kbits/s speed=0.126x elapsed=0:00:12.41    \nframe=   50 fps=3.9 q=21.0 size=       1KiB time=00:00:01.66 bitrate=   3.0kbits/s speed=0.129x elapsed=0:00:12.92    \nframe=   51 fps=3.8 q=9.0 size=       1KiB time=00:00:01.70 bitrate=   3.0kbits/s speed=0.126x elapsed=0:00:13.49    \nframe=   53 fps=3.8 q=20.0 size=       1KiB time=00:00:01.76 bitrate=   2.9kbits/s speed=0.126x elapsed=0:00:14.06    \nframe=   55 fps=3.8 q=20.0 size=       1KiB time=00:00:01.83 bitrate=   2.8kbits/s speed=0.125x elapsed=0:00:14.63    \nframe=   57 fps=3.8 q=20.0 size=       1KiB time=00:00:01.90 bitrate=   2.7kbits/s speed=0.125x elapsed=0:00:15.14    \nframe=   59 fps=3.8 q=19.0 size=       1KiB time=00:00:01.96 bitrate=   2.6kbits/s speed=0.126x elapsed=0:00:15.66    \nframe=   60 fps=3.7 q=19.0 size=       1KiB time=00:00:02.00 bitrate=   2.5kbits/s speed=0.124x elapsed=0:00:16.19    \nframe=   63 fps=3.8 q=19.0 size=       1KiB time=00:00:02.10 bitrate=   2.4kbits/s speed=0.126x elapsed=0:00:16.71    \nframe=   65 fps=3.8 q=19.0 size=       1KiB time=00:00:02.16 bitrate=   2.3kbits/s speed=0.125x elapsed=0:00:17.27    \nframe=   67 fps=3.8 q=20.0 size=       1KiB time=00:00:02.23 bitrate=   2.3kbits/s speed=0.125x elapsed=0:00:17.83    \nframe=   69 fps=3.8 q=20.0 size=       1KiB time=00:00:02.30 bitrate=   2.2kbits/s speed=0.125x elapsed=0:00:18.36    \nframe=   70 fps=3.7 q=20.0 size=       1KiB time=00:00:02.33 bitrate=   2.2kbits/s speed=0.124x elapsed=0:00:18.88    \nframe=   73 fps=3.8 q=20.0 size=       1KiB time=00:00:02.43 bitrate=   2.1kbits/s speed=0.125x elapsed=0:00:19.41    \nframe=   75 fps=3.8 q=20.0 size=       1KiB time=00:00:02.50 bitrate=   2.0kbits/s speed=0.125x elapsed=0:00:19.98    \nframe=   77 fps=3.8 q=20.0 size=       1KiB time=00:00:02.56 bitrate=   2.0kbits/s speed=0.125x elapsed=0:00:20.51    \nframe=   79 fps=3.8 q=20.0 size=       1KiB time=00:00:02.63 bitrate=   1.9kbits/s speed=0.125x elapsed=0:00:21.04    \nframe=   80 fps=3.7 q=20.0 size=       1KiB time=00:00:02.66 bitrate=   1.9kbits/s speed=0.124x elapsed=0:00:21.54    \nframe=   83 fps=3.8 q=21.0 size=       1KiB time=00:00:02.76 bitrate=   1.8kbits/s speed=0.125x elapsed=0:00:22.09    \nframe=   85 fps=3.8 q=21.0 size=       1KiB time=00:00:02.83 bitrate=   1.8kbits/s speed=0.125x elapsed=0:00:22.65    \nframe=   87 fps=3.8 q=20.0 size=       1KiB time=00:00:02.90 bitrate=   1.7kbits/s speed=0.125x elapsed=0:00:23.16    \nframe=   90 fps=3.8 q=20.0 size=       1KiB time=00:00:03.00 bitrate=   1.7kbits/s speed=0.127x elapsed=0:00:23.69    \nframe=   91 fps=3.8 q=7.0 size=       1KiB time=00:00:03.03 bitrate=   1.7kbits/s speed=0.125x elapsed=0:00:24.26    \nframe=   94 fps=3.8 q=20.0 size=       1KiB time=00:00:03.13 bitrate=   1.6kbits/s speed=0.126x elapsed=0:00:24.78    \nframe=   96 fps=3.8 q=21.0 size=       1KiB time=00:00:03.20 bitrate=   1.6kbits/s speed=0.126x elapsed=0:00:25.32    \nframe=   98 fps=3.8 q=21.0 size=       1KiB time=00:00:03.26 bitrate=   1.6kbits/s speed=0.126x elapsed=0:00:25.88    \nframe=  100 fps=3.8 q=22.0 size=       1KiB time=00:00:03.33 bitrate=   1.5kbits/s speed=0.126x elapsed=0:00:26.40    \nframe=  102 fps=3.8 q=23.0 size=       1KiB time=00:00:03.40 bitrate=   1.5kbits/s speed=0.126x elapsed=0:00:26.98    \nframe=  105 fps=3.8 q=23.0 size=       1KiB time=00:00:03.50 bitrate=   1.4kbits/s speed=0.127x elapsed=0:00:27.51    \nframe=  107 fps=3.8 q=24.0 size=       1KiB time=00:00:03.56 bitrate=   1.4kbits/s speed=0.127x elapsed=0:00:28.04    \nframe=  109 fps=3.8 q=24.0 size=       1KiB time=00:00:03.63 bitrate=   1.4kbits/s speed=0.127x elapsed=0:00:28.59    \nframe=  110 fps=3.8 q=24.0 size=       1KiB time=00:00:03.66 bitrate=   1.4kbits/s speed=0.126x elapsed=0:00:29.10    \nframe=  112 fps=3.8 q=22.0 size=       1KiB time=00:00:03.73 bitrate=   1.4kbits/s speed=0.126x elapsed=0:00:29.68    \nframe=  114 fps=3.8 q=21.0 size=       1KiB time=00:00:03.80 bitrate=   1.3kbits/s speed=0.126x elapsed=0:00:30.26    \nframe=  116 fps=3.8 q=22.0 size=       1KiB time=00:00:03.86 bitrate=   1.3kbits/s speed=0.126x elapsed=0:00:30.79    \nframe=  118 fps=3.8 q=22.0 size=       1KiB time=00:00:03.93 bitrate=   1.3kbits/s speed=0.125x elapsed=0:00:31.34    \nframe=  120 fps=3.8 q=22.0 size=       1KiB time=00:00:04.00 bitrate=   1.3kbits/s speed=0.125x elapsed=0:00:31.87    \nframe=  122 fps=3.8 q=21.0 size=       1KiB time=00:00:04.06 bitrate=   1.2kbits/s speed=0.125x elapsed=0:00:32.42    \nframe=  124 fps=3.8 q=20.0 size=       1KiB time=00:00:04.13 bitrate=   1.2kbits/s speed=0.125x elapsed=0:00:32.95    \nframe=  126 fps=3.8 q=20.0 size=       1KiB time=00:00:04.20 bitrate=   1.2kbits/s speed=0.125x elapsed=0:00:33.49    \nframe=  126 fps=3.7 q=20.0 size=       1KiB time=00:00:04.20 bitrate=   1.2kbits/s speed=0.123x elapsed=0:00:34.03    \nframe=  126 fps=3.6 q=20.0 size=       1KiB time=00:00:04.20 bitrate=   1.2kbits/s speed=0.121x elapsed=0:00:34.57    \nframe=  126 fps=3.6 q=20.0 size=       1KiB time=00:00:04.20 bitrate=   1.2kbits/s speed=0.12x elapsed=0:00:35.12    \nframe=  126 fps=3.5 q=20.0 size=       1KiB time=00:00:04.20 bitrate=   1.2kbits/s speed=0.118x elapsed=0:00:35.63    \nframe=  126 fps=3.5 q=20.0 size=       1KiB time=00:00:04.20 bitrate=   1.2kbits/s speed=0.116x elapsed=0:00:36.16    \nframe=  126 fps=3.4 q=20.0 size=       1KiB time=00:00:04.20 bitrate=   1.2kbits/s speed=0.114x elapsed=0:00:36.69    \nframe=  126 fps=3.4 q=20.0 size=       1KiB time=00:00:04.20 bitrate=   1.2kbits/s speed=0.113x elapsed=0:00:37.24    \nframe=  126 fps=3.3 q=20.0 size=       1KiB time=00:00:04.20 bitrate=   1.2kbits/s speed=0.111x elapsed=0:00:37.79    \nframe=  126 fps=3.3 q=20.0 size=       1KiB time=00:00:04.20 bitrate=   1.2kbits/s speed=0.11x elapsed=0:00:38.32    \nframe=  126 fps=3.2 q=20.0 size=       1KiB time=00:00:04.20 bitrate=   1.2kbits/s speed=0.108x elapsed=0:00:38.86    \nframe=  126 fps=3.2 q=20.0 size=       1KiB time=00:00:04.20 bitrate=   1.2kbits/s speed=0.107x elapsed=0:00:39.39    \n[out#0/webm @ 0000022fb47008c0] video:6146KiB audio:0KiB subtitle:0KiB other streams:0KiB global headers:0KiB muxing overhead: 0.030109%\nframe=  150 fps=3.8 q=18.0 Lsize=    6148KiB time=00:00:05.00 bitrate=10073.2kbits/s speed=0.126x elapsed=0:00:39.74    \n",
  "seconds": 40.204564809799194,
  "probe_out": {}
}